<?xml version="1.0" encoding="UTF-8" standalone="no"?>
<!DOCTYPE svg PUBLIC "-//W3C//DTD SVG 1.1//EN" "http://www.w3.org/Graphics/SVG/1.1/DTD/svg11.dtd">
<svg width="100%" height="100%" viewBox="0 0 300 368" version="1.1" xmlns="http://www.w3.org/2000/svg" xmlns:xlink="http://www.w3.org/1999/xlink" xml:space="preserve" xmlns:serif="http://www.serif.com/" style="fill-rule:evenodd;clip-rule:evenodd;stroke-linejoin:round;stroke-miterlimit:2;">
    <g id="g195" transform="matrix(2.70319,0,0,2.70319,-170.536,-352.078)">
        <g id="Layer-1" serif:id="Layer 1">
            <g id="g1951" serif:id="g195">
                <g id="path207" transform="matrix(1,0,0,1,-2.38157,-0.724887)">
                    <path d="M110.401,219.034L108.62,215.229L109.401,213.954C113.246,207.67 122.391,200.558 134.104,194.743C144.709,189.477 149.587,186.031 158.625,177.414L161.511,173.778L162.245,174.42C162.241,174.778 162.264,175.624 161.88,176.469C161.88,176.469 161.282,177.453 161.183,178.007C161.066,178.658 161.183,180.374 161.183,180.374C161.183,184.41 162.716,188.32 166.104,192.923L167.921,195.393L166.051,197.071C162.967,199.84 158.38,202.973 155.009,204.614L151.834,206.16L147.424,207.016C144.999,207.487 140.157,208.288 136.665,208.796C124.812,210.521 118.318,213.788 114.061,220.165C113.312,221.286 112.583,222.346 112.441,222.521C112.299,222.696 111.381,221.126 110.401,219.034L110.401,219.034Z" style="fill:rgb(250,206,7);fill-rule:nonzero;"/>
                </g>
                <g id="path205" transform="matrix(1,0,0,1,-2.7305,0.522736)">
                    <path d="M108.631,216.053C108.431,215.678 108.266,215.18 108.266,214.946C108.266,214.713 107.407,212.758 106.357,210.602C105.308,208.446 104.176,205.738 103.843,204.584L103.237,202.487L103.413,199.469C103.51,197.809 103.839,195.856 104.146,195.128L104.702,193.805L105.374,193.805C105.743,193.805 107.789,192.949 109.921,191.903C131.702,181.213 143.544,164.131 143.544,143.401L143.544,139.282L142.944,138.426L142.345,137.57L144.586,139.141C147.591,141.248 150.692,144.031 153.18,146.852L155.231,149.179L157.116,153.059C160.276,159.569 162.57,167.358 162.586,171.635L162.594,173.63L158.626,177.414C149.587,186.031 144.71,189.477 134.104,194.743C122.367,200.57 113.248,207.668 109.38,213.987L108.579,215.296L108.965,216.016C109.176,216.412 109.27,216.736 109.173,216.736C109.076,216.736 108.833,216.429 108.632,216.053L108.631,216.053Z" style="fill:rgb(251,141,19);fill-rule:nonzero;"/>
                </g>
                <g id="path203" transform="matrix(1,0,0,1,-2.04258,0.316724)">
                    <path d="M105.847,210.672C104.67,208.283 103.446,205.297 103.128,204.036L102.549,201.743L102.768,199.576C103.313,194.17 106.058,189.372 112.791,182.054C121.371,172.728 125.84,162.341 126.498,150.194L126.711,146.271L126.262,143.315C126.016,141.689 125.234,138.573 124.526,136.391L123.238,132.422L124.193,132.422C129.767,132.422 138.411,134.557 143.544,139.282C144.263,139.944 145.3,146.419 145.299,146.598C145.096,167.086 131.514,181.306 109.921,191.903C107.789,192.949 105.743,193.805 105.374,193.805L104.702,193.805L104.145,195.128C103.839,195.856 103.51,197.809 103.413,199.469L103.237,202.487L103.843,204.584C104.176,205.738 105.323,208.478 106.393,210.674C107.462,212.87 108.258,214.745 108.162,214.841C108.065,214.938 107.024,213.062 105.846,210.672Z" style="fill:rgb(239,73,36);fill-rule:nonzero;"/>
                </g>
                <path id="path201" d="M119.731,260.775C110.728,257.118 99.77,255.544 83.307,255.542L75.458,255.541L75.458,255.005C75.458,254.71 76.174,253.043 77.049,251.3C85.894,233.689 86.127,220.898 77.832,208.373C76.778,206.781 81.16,203.713 79.667,200.745L81.972,194.803L81.702,188.179C83.458,159.558 85.307,153.517 108.568,152.942L115.564,155.194L110.261,158.983C83.823,160.095 94.763,148.949 92.573,172.905L87.107,177.675L90.118,185.233C90.931,194.43 72.519,199.965 79.483,210.37C81.725,213.719 83.031,217.074 83.796,221.448L84.361,224.673L84.144,228.554C83.767,235.304 81.897,241.867 78.072,249.858C76.828,252.456 75.811,254.718 75.811,254.885C75.811,255.052 79.422,255.192 83.836,255.197C91.136,255.205 95.862,255.43 102.269,256.076L104.562,256.308L105.953,251.956C111.267,235.327 109.173,220.624 121.004,218.762L135.889,219.054C135.889,219.054 151.314,218.735 157.983,219.896C158.912,220.058 160.412,221.345 160.412,221.345L162.731,222.909C162.731,222.909 164.122,224.665 163.99,225.666C163.855,226.693 163.539,228.241 161.92,229.067C160.111,229.989 159.992,230.478 160.871,233.37C160.871,233.37 161.537,235.856 161.391,237.252C161.193,239.161 158.884,243.07 156.819,244.149C156.819,244.149 156.126,244.665 155.715,244.726C154.913,244.847 153.226,245.238 151.992,245.287C150.757,245.336 149.539,245.11 148.307,245.02C146.866,244.916 143.368,244.248 143.368,244.248C140.651,243.823 137.227,243.393 135.758,243.293C135.758,243.293 133.71,243.049 133.087,243.111C132.687,243.15 131.194,243.902 130.946,244.218C130.64,244.606 130.183,245.991 130.183,245.991C129.763,246.966 129.114,249.253 128.74,251.072C128.086,254.249 126.139,261.227 125.715,261.914C125.304,262.579 123.175,262.174 119.732,260.775L119.731,260.775Z" style="fill:rgb(22,116,175);fill-rule:nonzero;"/>
                <g id="path199" transform="matrix(1,0,0,1,-2.84176,-1.41111)">
                    <path d="M113.15,233.221C113.216,231.617 113.035,228.938 112.747,227.268L112.223,224.232L110.066,219.722C108.879,217.242 107.974,215.147 108.054,215.066C108.134,214.986 109.048,216.676 110.085,218.823C112.31,223.429 111.986,223.286 113.832,220.479C118.191,213.849 124.647,210.546 136.665,208.796C140.157,208.288 144.999,207.487 147.425,207.016L151.834,206.16L155.009,204.617C158.333,203.001 162.414,200.23 165.876,197.236C167.002,196.263 168.042,195.608 168.187,195.782C169.12,196.903 171.146,199.581 172.405,201.359L173.883,203.445C173.883,203.445 174.568,204.413 174.568,204.912C174.568,205.412 173.883,206.442 173.883,206.442L172.81,207.345C172.22,207.841 170.613,208.583 169.238,208.992C167.864,209.401 166.362,210.113 165.901,210.574L165.063,211.412L165.063,212.607C165.063,213.264 165.3,214.581 165.589,215.533C166.5,218.535 165.934,220.367 163.728,221.564L162.627,222.276L161.541,221.812C161.541,221.812 160.99,221.403 160.664,221.35C157.517,220.842 148.281,221.331 148.281,221.331L135.898,221.312L133.283,221.814C126.771,223.065 119.446,228.059 114.731,234.463C113.094,236.688 113.009,236.621 113.15,233.221L113.15,233.221Z" style="fill:rgb(62,168,66);fill-rule:nonzero;"/>
                </g>
                <path id="path197" d="M99.255,256.214C98.187,256.053 94.48,256.113 88.32,255.982C82.159,255.851 75.548,255.641 75.426,255.708C74.7,256.102 75.878,253.005 77.121,250.407C80.946,242.415 83.087,237.298 83.464,230.548L82.991,221.809C82.226,217.436 80.229,213.218 77.988,209.869C71.023,199.464 69.547,192.475 68.734,183.278C68.734,183.278 68.336,180.165 68.331,178.729C68.327,177.367 68.703,174.66 68.703,174.66C69.315,167.965 71.281,161.805 74.365,156.388C76.689,152.304 79.649,148.642 83.143,145.492C91.56,137.903 103.075,133.285 116.266,132.889L122.106,132.738C122.106,132.738 124.829,134.444 124.926,138.092C125.192,148.132 125.048,168.714 112.796,182.054C100.943,194.959 100.117,199.522 107.088,213.605C112.801,225.146 113.354,226.963 113.165,233.58C113.165,233.58 113.117,235.426 112.232,238.027C111.174,241.136 107.666,247.909 106.353,251.966L105.207,256.93L99.255,256.214Z" style="fill:rgb(21,73,105);fill-rule:nonzero;"/>
            </g>
        </g>
    </g>
</svg>
